<?xml version="1.0" encoding="utf-8"?>
<!-- Generator: Adobe Illustrator 15.0.2, SVG Export Plug-In  -->
<!DOCTYPE svg PUBLIC "-//W3C//DTD SVG 1.1//EN" "http://www.w3.org/Graphics/SVG/1.1/DTD/svg11.dtd" [
	<!ENTITY ns_flows "http://ns.adobe.com/Flows/1.0/">
]>
<svg version="1.1"
	 xmlns="http://www.w3.org/2000/svg" xmlns:xlink="http://www.w3.org/1999/xlink" xmlns:a="http://ns.adobe.com/AdobeSVGViewerExtensions/3.0/"
	 x="0px" y="0px" width="91px" height="84px" viewBox="-9.47 -6.219 91 84"
	 overflow="visible" enable-background="new -9.47 -6.219 91 84" xml:space="preserve">
<defs>
</defs>
<path fill="#35495E" d="M33.107,34.93c-6.932-2.783-21.824-3.617-30.76-3.617v2.041c15.209,0,25.387,1.758,29.865,3.381
	C32.345,36.045,32.664,35.432,33.107,34.93z"/>
<path fill="#35495E" d="M37.971,34.205c0.659-10.979,9.182-20.225,20.471-21.387l-0.209-2.021
	c-12.14,1.25-21.344,11.064-22.268,22.826C36.703,33.623,37.388,33.84,37.971,34.205z"/>
<path fill="#35495E" d="M39.729,37.906c-0.086,0.695-0.355,1.328-0.761,1.852c7.054,2.688,21.639,3.502,30.448,3.502v-2.037
	C54.407,41.223,44.297,39.514,39.729,37.906z"/>
<path fill="#35495E" d="M33.779,40.564C33.034,51.457,24.542,60.6,13.322,61.758l0.208,2.023
	c12.047-1.246,21.205-10.914,22.253-22.547C35.04,41.201,34.353,40.963,33.779,40.564z"/>
<path fill="#35495E" d="M35.78,0c-0.931,0-1.691,0.756-1.691,1.691c0,0.934,0.761,1.691,1.691,1.691
	c15.505,0,28.487,10.957,31.647,25.533c-10.117-5.314-22.527-3.211-30.364,4.887c0.685,0.207,1.277,0.59,1.739,1.111
	c7.597-7.582,19.633-9.184,29.061-3.402c0.185,1.404,0.314,2.818,0.314,4.27c0,7.018-2.267,13.504-6.073,18.814
	c-10.243,1.203-19.955-4.85-23.502-14.412c-0.469,0.451-1.053,0.775-1.701,0.938c3.722,9.676,13.284,15.953,23.637,15.512
	c-5.949,7.051-14.831,11.549-24.758,11.549c-14.291,0-26.424-9.307-30.717-22.168c9.906,4.803,21.804,2.705,29.457-5.045
	c-0.647-0.264-1.202-0.711-1.613-1.264c-7.49,7.436-19.266,9.08-28.609,3.596c-0.578-2.416-0.918-4.928-0.918-7.52
	c0-6.049,1.714-11.861,4.77-16.867c11.048-1.281,21.515,5.402,25.075,15.867c0.484-0.496,1.098-0.85,1.787-1.027
	c-3.804-10.627-14.194-17.543-25.438-16.98c2.678-3.697,6.134-6.855,10.229-9.188c0.065-0.035,0.105-0.096,0.164-0.139l0.819,1.705
	c0.135,0.273,0.4,0.455,0.702,0.477c0.018,0,0.041,0,0.063,0c0.279,0,0.54-0.135,0.697-0.365l4.229-6.207
	c0.17-0.248,0.192-0.572,0.063-0.842c-0.132-0.275-0.398-0.455-0.7-0.477L18.358,1.18c-0.289-0.02-0.594,0.117-0.762,0.365
	c-0.172,0.244-0.194,0.568-0.062,0.842l1.021,2.125c-0.145,0.035-0.289,0.057-0.426,0.137C6.945,11.004,0,22.932,0,35.781
	c0,19.732,16.048,35.781,35.78,35.781c19.729,0,35.78-16.049,35.78-35.781S55.51,0,35.78,0z"/>
<path fill="#35495E" d="M35.958,42.943c-3.035,0-5.505-2.473-5.505-5.508c0-3.037,2.47-5.508,5.505-5.508
	c3.037,0,5.51,2.471,5.51,5.508C41.468,40.471,38.995,42.943,35.958,42.943z M35.958,34.336c-1.712,0-3.104,1.389-3.104,3.1
	c0,1.715,1.392,3.107,3.104,3.107c1.714,0,3.105-1.393,3.105-3.107C39.063,35.725,37.672,34.336,35.958,34.336z"/>
</svg>
