<?xml version="1.0" encoding="utf-8"?>
<!-- Generator: Adobe Illustrator 15.0.2, SVG Export Plug-In  -->
<!DOCTYPE svg PUBLIC "-//W3C//DTD SVG 1.1//EN" "http://www.w3.org/Graphics/SVG/1.1/DTD/svg11.dtd" [
	<!ENTITY ns_flows "http://ns.adobe.com/Flows/1.0/">
]>
<svg version="1.1"
	 xmlns="http://www.w3.org/2000/svg" xmlns:xlink="http://www.w3.org/1999/xlink" xmlns:a="http://ns.adobe.com/AdobeSVGViewerExtensions/3.0/"
	 x="0px" y="0px" width="102px" height="85px" viewBox="-17.347 -23.093 102 85"
	 overflow="visible" enable-background="new -17.347 -23.093 102 85" xml:space="preserve">
<defs>
</defs>
<path fill="#2C3E50" d="M66.896,38.391c0,1.819-1.475,3.295-3.295,3.295H3.295C1.475,41.686,0,40.21,0,38.391V3.295
	C0,1.476,1.475,0,3.295,0h60.306c1.82,0,3.295,1.476,3.295,3.295V38.391z"/>
<rect x="2.966" y="2.802" fill="#35495E" width="60.941" height="29.328"/>
<polygon opacity="0.05" fill="#FFFFFF" points="2.966,2.802 2.966,28.834 57.146,2.802 "/>
<path fill="#BDC3C7" d="M0,35.233v4.643c0,1.82,1.475,3.296,3.295,3.296h60.306c1.82,0,3.295-1.476,3.295-3.296v-4.643H0z"/>
<rect x="26.61" y="41.147" fill="#BDC3C7" width="13.676" height="9.721"/>
<rect x="26.46" y="43.663" fill="#95A5A5" width="13.833" height="1.572"/>
<rect x="4.924" y="5.74" fill="#3B97D3" width="12.261" height="0.589"/>
<rect x="6.102" y="7.509" fill="#F29C1F" width="5.306" height="0.589"/>
<rect x="8.696" y="9.906" fill="#F0C419" width="6.72" height="0.589"/>
<rect x="12.312" y="7.509" fill="#3B97D3" width="6.524" height="0.589"/>
<rect x="19.66" y="7.509" fill="#4FBA6F" width="4.717" height="0.59"/>
<rect x="16.596" y="9.906" fill="#4FBA6F" width="6.72" height="0.589"/>
<rect x="8.696" y="11.557" fill="#ECF0F1" width="5.432" height="0.59"/>
<rect x="15.172" y="11.557" fill="#4FBA6F" width="5.433" height="0.59"/>
<rect x="8.696" y="13.325" fill="#E57E25" width="5.432" height="0.59"/>
<rect x="10.933" y="14.759" fill="#3B97D3" width="5.432" height="0.589"/>
<rect x="17.421" y="14.759" fill="#4FBA6F" width="4.716" height="0.589"/>
<rect x="12.938" y="16.527" fill="#3B97D3" width="5.432" height="0.589"/>
<rect x="19.423" y="16.527" fill="#E64C3C" width="2.833" height="0.589"/>
<rect x="5.944" y="20.653" fill="#F29C1F" width="5.306" height="0.59"/>
<rect x="8.539" y="23.051" fill="#F0C419" width="6.72" height="0.59"/>
<rect x="15.415" y="20.653" fill="#4FBA6F" width="7.86" height="0.59"/>
<rect x="16.438" y="23.051" fill="#955BA5" width="6.721" height="0.59"/>
<rect x="8.539" y="24.702" fill="#E57E25" width="5.433" height="0.59"/>
<rect x="15.016" y="24.702" fill="#F0C419" width="5.432" height="0.59"/>
<rect x="8.539" y="26.471" fill="#4FBA6F" width="5.433" height="0.589"/>
<rect x="10.775" y="27.903" fill="#ECF0F1" width="5.432" height="0.59"/>
<rect x="17.264" y="27.903" fill="#F0C419" width="4.716" height="0.59"/>
<rect x="12.096" y="20.653" fill="#3B97D3" width="2.162" height="0.59"/>
<path fill="#24AE5F" d="M49.882,20.587c-1.525,0-2.766-1.241-2.766-2.767c0-1.526,1.24-2.767,2.766-2.767s2.768,1.24,2.768,2.767
	C52.649,19.346,51.407,20.587,49.882,20.587z M49.882,15.524c-1.266,0-2.295,1.03-2.295,2.296c0,1.265,1.029,2.295,2.295,2.295
	s2.295-1.03,2.295-2.295C52.177,16.555,51.147,15.524,49.882,15.524z"/>
<path fill="#F29C1F" d="M49.882,22.457c-2.557,0-4.637-2.08-4.637-4.637c0-2.558,2.08-4.638,4.637-4.638s4.637,2.08,4.637,4.638
	C54.519,20.377,52.438,22.457,49.882,22.457z M49.882,14.598c-1.775,0-3.223,1.445-3.223,3.223c0,1.776,1.447,3.222,3.223,3.222
	c1.777,0,3.223-1.445,3.223-3.222C53.104,16.043,51.659,14.598,49.882,14.598z"/>
<path fill="#E64C3C" d="M51.688,24.562h-3.613l-3.129-1.807l-1.807-3.128v-3.613l1.807-3.129l3.129-1.807h3.613l3.129,1.807
	l1.807,3.129v3.613l-1.807,3.128L51.688,24.562z M48.202,24.091h3.361l2.908-1.681l1.682-2.909V16.14l-1.682-2.91l-2.908-1.68
	h-3.361l-2.91,1.68l-1.68,2.91v3.361l1.68,2.909L48.202,24.091z"/>
<path fill="#E64C3C" d="M52.237,26.605h-4.709l-4.076-2.354l-2.354-4.077v-4.708l2.354-4.077l4.076-2.354h4.709l4.076,2.354
	l2.354,4.077v4.708l-2.354,4.077L52.237,26.605z M47.78,25.662h4.203l3.639-2.102l2.104-3.639v-4.204l-2.104-3.639l-3.639-2.102
	H47.78l-3.639,2.102l-2.102,3.639v4.204l2.102,3.639L47.78,25.662z"/>
<path fill="#E64C3C" d="M52.657,28.177h-5.551l-4.805-2.775l-2.776-4.806v-5.552l2.776-4.806l4.805-2.775h5.551l4.807,2.775
	l2.775,4.806v5.552l-2.775,4.806L52.657,28.177z M47.358,27.234h5.047l4.367-2.523l2.523-4.368v-5.046l-2.523-4.368l-4.367-2.522
	h-5.047l-4.367,2.522l-2.522,4.368v5.046l2.522,4.368L47.358,27.234z"/>
<rect x="34.084" y="3.735" fill="#2C3E50" width="0.472" height="27.037"/>
<path fill="#F0C419" d="M50.054,17.765h-0.188c0-4.049,3.295-7.345,7.344-7.345v0.189C53.265,10.609,50.054,13.819,50.054,17.765z"
	/>
<path fill="#F0C419" d="M42.591,25.11v-0.189c4.012,0,7.275-3.263,7.275-7.273h0.188C50.054,21.762,46.706,25.11,42.591,25.11z"/>
<path fill="#F0C419" d="M49.937,17.647h-0.189c0-3.66,3.4-6.638,7.582-6.638v0.188C53.253,11.198,49.937,14.092,49.937,17.647z"/>
<path fill="#F0C419" d="M49.995,17.471h-0.189c0-4.147,2.926-7.522,6.52-7.522v0.189C52.835,10.138,49.995,13.427,49.995,17.471z"/>
<path fill="#F0C419" d="M49.937,17.471h-0.189c0-3.237,3.428-5.871,7.641-5.871v0.188C53.278,11.788,49.937,14.337,49.937,17.471z"
	/>
<path fill="#F0C419" d="M42.001,23.165v-0.189c4.271,0,7.746-2.391,7.746-5.328h0.189C49.937,20.689,46.376,23.165,42.001,23.165z"
	/>
<path fill="#F0C419" d="M46.247,26.878v-0.188c1.994,0,3.619-4.03,3.619-8.983h0.188C50.054,22.764,48.345,26.878,46.247,26.878z"/>
<path fill="#F0C419" d="M50.054,17.706h-0.188c0-2.418-3.053-4.386-6.803-4.386v-0.188C46.919,13.132,50.054,15.184,50.054,17.706z"
	/>
<path fill="#F0C419" d="M58.212,19.216c-4.018,0-8.287-0.55-8.287-1.568h0.188c0,0.652,3.328,1.379,8.1,1.379V19.216z"/>
<path fill="#F0C419" d="M49.937,17.765h-0.189c0-1.771,4.393-3.159,9.998-3.159v0.188C54.337,14.794,49.937,16.127,49.937,17.765z"
	/>
<path fill="#955BA5" d="M49.929,17.672c0.002-0.003,0.008-0.011,0.008-0.024h-0.189c0-0.482,3.418-0.507,4.104-0.507v0.188
	C51.479,17.329,50.05,17.528,49.929,17.672z"/>
<path fill="#955BA5" d="M50.054,17.647h-0.188c0-1.151-1.52-2.087-3.385-2.087v-0.188C48.452,15.372,50.054,16.393,50.054,17.647z"
	/>
<circle fill="#2C3E50" cx="49.883" cy="17.82" r="0.466"/>
<path fill="#FFFFFF" d="M49.882,18.404c-0.322,0-0.584-0.263-0.584-0.584c0-0.322,0.262-0.584,0.584-0.584s0.584,0.262,0.584,0.584
	C50.466,18.142,50.204,18.404,49.882,18.404z M49.882,17.472c-0.191,0-0.348,0.156-0.348,0.349c0,0.191,0.156,0.348,0.348,0.348
	c0.193,0,0.35-0.156,0.35-0.348C50.231,17.628,50.075,17.472,49.882,17.472z"/>
</svg>
