<?xml version="1.0" encoding="utf-8"?>
<!-- Generator: Adobe Illustrator 15.0.2, SVG Export Plug-In  -->
<!DOCTYPE svg PUBLIC "-//W3C//DTD SVG 1.1//EN" "http://www.w3.org/Graphics/SVG/1.1/DTD/svg11.dtd" [
	<!ENTITY ns_flows "http://ns.adobe.com/Flows/1.0/">
]>
<svg version="1.1"
	 xmlns="http://www.w3.org/2000/svg" xmlns:xlink="http://www.w3.org/1999/xlink" xmlns:a="http://ns.adobe.com/AdobeSVGViewerExtensions/3.0/"
	 x="0px" y="0px" width="251px" height="184px" viewBox="-9.104 -5.589 251 184"
	 overflow="visible" enable-background="new -9.104 -5.589 251 184" xml:space="preserve">
<defs>
</defs>
<rect x="93.078" y="143.929" fill="#ECF0F1" width="47.836" height="34.002"/>
<path fill="#2C3E50" d="M233.992,134.285c0,6.365-5.16,11.526-11.526,11.526H11.527C5.159,145.812,0,140.65,0,134.285V11.525
	C0,5.16,5.159,0,11.527,0h210.938c6.366,0,11.526,5.16,11.526,11.525V134.285z"/>
<rect x="10.375" y="9.799" fill="#35495E" width="213.167" height="102.587"/>
<polygon opacity="0.05" fill="#FFFFFF" points="10.375,9.799 10.375,100.857 199.888,9.799 "/>
<path fill="#ECF0F1" d="M0,123.241v16.241c0,6.367,5.159,11.527,11.527,11.527h210.938c6.366,0,11.526-5.16,11.526-11.527v-16.241H0
	z"/>
<rect x="92.553" y="151.077" fill="#95A5A5" width="48.386" height="5.5"/>
<circle fill="none" stroke="#24AE5F" stroke-miterlimit="10" cx="174.483" cy="62.331" r="8.854"/>
<circle fill="none" stroke="#F29C1F" stroke-width="3" stroke-miterlimit="10" cx="174.483" cy="62.331" r="13.745"/>
<polygon fill="none" stroke="#E64C3C" stroke-miterlimit="10" points="168.384,85.09 157.823,78.991 151.726,68.431 151.726,56.233 
	157.823,45.673 168.384,39.573 180.583,39.573 191.144,45.673 197.241,56.233 197.241,68.431 191.144,78.991 180.583,85.09 "/>
<polygon fill="none" stroke="#E64C3C" stroke-width="2" stroke-miterlimit="10" points="166.689,91.413 153.195,83.619 
	145.402,70.125 145.402,54.539 153.195,41.044 166.689,33.25 182.277,33.25 195.771,41.044 203.563,54.539 203.563,70.125 
	195.771,83.619 182.277,91.413 "/>
<polygon fill="none" stroke="#E64C3C" stroke-width="2" stroke-miterlimit="10" points="165.216,96.911 149.172,87.643 
	139.904,71.6 139.904,53.064 149.172,37.021 165.216,27.752 183.75,27.752 199.795,37.021 209.062,53.064 209.062,71.6 
	199.795,87.643 183.75,96.911 "/>
<line fill="none" stroke="#2C3E50" stroke-miterlimit="10" x1="120.045" y1="13.066" x2="120.045" y2="107.639"/>
<path fill="none" stroke="#F0C419" stroke-width="0.4" stroke-miterlimit="10" d="M174.754,62.14
	c0-14.018,11.344-25.36,25.361-25.36"/>
<path fill="none" stroke="#F0C419" stroke-width="0.4" stroke-miterlimit="10" d="M174.754,61.728
	c0,14.246-11.527,25.774-25.773,25.774"/>
<path fill="none" stroke="#F0C419" stroke-width="0.4" stroke-miterlimit="10" d="M174.342,61.728
	c0-12.649,11.712-22.887,26.186-22.887"/>
<path fill="none" stroke="#F0C419" stroke-width="0.4" stroke-miterlimit="10" d="M174.548,61.109
	c0-14.359,10.052-25.98,22.475-25.98"/>
<path fill="none" stroke="#F0C419" stroke-width="0.4" stroke-miterlimit="10" d="M174.342,61.109
	c0-11.17,11.805-20.207,26.393-20.207"/>
<path fill="none" stroke="#F0C419" stroke-width="0.4" stroke-miterlimit="10" d="M174.342,61.728
	c0,10.484-12.265,18.97-27.424,18.97"/>
<path fill="none" stroke="#F0C419" stroke-width="0.4" stroke-miterlimit="10" d="M174.754,61.935
	c0,17.551-5.812,31.752-12.991,31.752"/>
<path fill="none" stroke="#F0C419" stroke-width="0.4" stroke-miterlimit="10" d="M174.754,61.935
	c0-8.662-10.79-15.671-24.124-15.671"/>
<path fill="none" stroke="#F0C419" stroke-width="0.4" stroke-miterlimit="10" d="M174.96,61.728c0,2.851,12.818,5.155,28.66,5.155"
	/>
<path fill="none" stroke="#F0C419" stroke-width="0.4" stroke-miterlimit="10" d="M174.342,62.14
	c0-5.926,15.492-10.721,34.64-10.721"/>
<path fill="none" stroke="#955BA5" stroke-width="0.4" stroke-miterlimit="10" d="M174.342,61.728c0-0.798,6.271-1.442,14.021-1.442
	"/>
<path fill="none" stroke="#955BA5" stroke-width="0.4" stroke-miterlimit="10" d="M174.754,61.728c0-4.218-5.441-7.629-12.166-7.629
	"/>
<circle fill="#2C3E50" stroke="#FFFFFF" stroke-width="0.5" stroke-miterlimit="10" cx="174.483" cy="62.331" r="1.63"/>
<rect x="22.725" y="20.077" fill="#3B97D3" width="42.888" height="2.062"/>
<rect x="26.846" y="26.264" fill="#F29C1F" width="18.557" height="2.062"/>
<rect x="48.563" y="26.264" fill="#3B97D3" width="22.824" height="2.062"/>
<rect x="74.271" y="26.265" fill="#4FBA6F" width="16.495" height="2.062"/>
<rect x="35.921" y="32.647" fill="#F0C419" width="23.506" height="2.062"/>
<rect x="63.552" y="32.647" fill="#4FBA6F" width="23.505" height="2.062"/>
<rect x="35.921" y="38.438" fill="#ECF0F1" width="18.999" height="2.062"/>
<rect x="58.572" y="38.438" fill="#4FBA6F" width="19" height="2.062"/>
<rect x="35.921" y="44.229" fill="#E57E25" width="18.999" height="2.061"/>
<rect x="43.741" y="50.019" fill="#3B97D3" width="19" height="2.062"/>
<rect x="66.438" y="50.019" fill="#4FBA6F" width="16.496" height="2.062"/>
<rect x="50.758" y="55.809" fill="#3B97D3" width="19.001" height="2.062"/>
<rect x="73.438" y="55.809" fill="#E64C3C" width="9.912" height="2.062"/>
<rect x="35.371" y="78.583" fill="#F0C419" width="23.506" height="2.063"/>
<rect x="63.003" y="78.583" fill="#955BA5" width="23.506" height="2.063"/>
<rect x="35.371" y="84.924" fill="#E57E25" width="19.001" height="2.062"/>
<rect x="58.023" y="84.924" fill="#F0C419" width="18.999" height="2.062"/>
<rect x="35.371" y="91.264" fill="#4FBA6F" width="19.001" height="2.062"/>
<rect x="43.191" y="97.604" fill="#ECF0F1" width="19.001" height="2.062"/>
<rect x="65.89" y="97.604" fill="#F0C419" width="16.495" height="2.062"/>
<rect x="26.296" y="72.243" fill="#F29C1F" width="18.557" height="2.062"/>
<rect x="59.423" y="72.243" fill="#4FBA6F" width="27.493" height="2.062"/>
<rect x="47.81" y="72.243" fill="#3B97D3" width="7.564" height="2.062"/>
</svg>
