<?xml version="1.0" encoding="utf-8"?>
<!-- Generator: Adobe Illustrator 15.0.2, SVG Export Plug-In  -->
<!DOCTYPE svg PUBLIC "-//W3C//DTD SVG 1.1//EN" "http://www.w3.org/Graphics/SVG/1.1/DTD/svg11.dtd" [
	<!ENTITY ns_flows "http://ns.adobe.com/Flows/1.0/">
]>
<svg version="1.1"
	 xmlns="http://www.w3.org/2000/svg" xmlns:xlink="http://www.w3.org/1999/xlink" xmlns:a="http://ns.adobe.com/AdobeSVGViewerExtensions/3.0/"
	 x="0px" y="0px" width="102px" height="85px" viewBox="-12.189 -9.458 102 85"
	 overflow="visible" enable-background="new -12.189 -9.458 102 85" xml:space="preserve">
<defs>
</defs>
<rect x="35.511" y="50.431" fill="#BDC3C7" width="11.176" height="7.943"/>
<rect x="35.388" y="52.101" fill="#95A5A5" width="11.305" height="1.285"/>
<path fill="#35495E" d="M68.432,48.178c0,1.487-1.205,2.692-2.691,2.692H16.458c-1.487,0-2.692-1.205-2.692-2.692V19.497
	c0-1.486,1.205-2.692,2.692-2.692H65.74c1.486,0,2.691,1.206,2.691,2.692V48.178z"/>
<rect x="16.189" y="19.094" fill="#2C3E50" width="49.801" height="23.968"/>
<polygon opacity="0.05" fill="#FFFFFF" points="16.189,19.094 16.189,40.368 60.465,19.094 "/>
<path fill="#BDC3C7" d="M13.766,45.598v3.794c0,1.487,1.205,2.693,2.692,2.693H65.74c1.486,0,2.691-1.206,2.691-2.693v-3.794H13.766
	z"/>
<circle fill="#2C3E50" cx="38.902" cy="33.084" r="1.5"/>
<circle fill="#3B97D3" cx="38.902" cy="33.084" r="0.75"/>
<circle fill="#2C3E50" stroke="#3B97D3" stroke-width="0.3" stroke-miterlimit="10" cx="46.402" cy="33.25" r="1.5"/>
<circle fill="#3B97D3" cx="46.402" cy="33.25" r="0.75"/>
<circle fill="#2C3E50" cx="53.902" cy="29.25" r="1.5"/>
<circle fill="#3B97D3" cx="53.902" cy="29.25" r="0.75"/>
<circle fill="#2C3E50" cx="61.402" cy="24.106" r="1.5"/>
<circle fill="#3B97D3" cx="61.402" cy="24.106" r="0.75"/>
<circle fill="#2C3E50" cx="23.902" cy="37.272" r="1.5"/>
<circle fill="#3B97D3" cx="23.903" cy="37.272" r="0.75"/>
<circle fill="#2C3E50" cx="31.402" cy="34.274" r="1.5"/>
<circle fill="#3B97D3" cx="31.403" cy="34.274" r="0.75"/>
<line fill="none" stroke="#3B97D3" stroke-width="0.3" stroke-miterlimit="10" x1="23.819" y1="37.104" x2="31.236" y2="34.355"/>
<line fill="none" stroke="#3B97D3" stroke-width="0.3" stroke-miterlimit="10" x1="31.32" y1="34.355" x2="38.903" y2="32.939"/>
<line fill="none" stroke="#3B97D3" stroke-width="0.3" stroke-miterlimit="10" x1="38.903" y1="32.939" x2="46.403" y2="33.272"/>
<line fill="none" stroke="#3B97D3" stroke-width="0.3" stroke-miterlimit="10" x1="46.403" y1="33.272" x2="53.735" y2="29.273"/>
<line fill="none" stroke="#3B97D3" stroke-width="0.3" stroke-miterlimit="10" x1="53.735" y1="29.273" x2="61.32" y2="24.189"/>
<rect x="54.543" y="37.234" fill="#2C3E50" width="8.425" height="0.761"/>
<rect x="54.543" y="36.117" fill="#3B97D3" width="4.492" height="0.761"/>
<rect x="54.543" y="38.234" fill="#35495E" width="8.425" height="0.761"/>
<polygon fill="#3B97D3" points="65.009,7.228 63.065,16.537 72.098,13.564 "/>
<path fill="#3B97D3" d="M72.433,14.595l-9.03,2.962c-0.364,0.112-0.755,0.03-1.048-0.221c-0.284-0.246-0.417-0.64-0.338-1.021
	l1.944-9.293c0.085-0.357,0.349-0.686,0.718-0.798c0.361-0.119,0.758-0.043,1.049,0.219l7.076,6.333
	c0.285,0.245,0.417,0.646,0.338,1.014c-0.007,0.026-0.01,0.056-0.023,0.072C73.03,14.21,72.759,14.478,72.433,14.595z
	 M64.495,14.935L70,13.13l-4.318-3.853L64.495,14.935z"/>
<path fill="#3B97D3" d="M66.973,12.161c0.835,0.837,2.19,0.837,3.025,0l8.509-8.507c0.835-0.835,0.835-2.19-0.001-3.027l0,0
	c-0.835-0.836-2.189-0.836-3.026,0l-8.508,8.51C66.138,9.971,66.138,11.326,66.973,12.161L66.973,12.161z"/>
<polygon fill="#2C3E50" points="14.125,7.229 16.068,16.538 7.036,13.565 "/>
<path fill="#2C3E50" d="M6.014,13.863c-0.013-0.017-0.016-0.046-0.023-0.072c-0.08-0.368,0.053-0.769,0.337-1.014l7.076-6.333
	c0.292-0.262,0.689-0.338,1.05-0.219c0.369,0.112,0.632,0.44,0.718,0.798l1.944,9.293c0.08,0.381-0.053,0.774-0.338,1.021
	c-0.292,0.251-0.684,0.333-1.048,0.221l-9.03-2.962C6.375,14.479,6.104,14.211,6.014,13.863z M13.453,9.278l-4.319,3.853
	l5.505,1.805L13.453,9.278z"/>
<path fill="#2C3E50" d="M12.161,12.162c-0.836,0.837-2.19,0.837-3.026,0L0.626,3.655c-0.835-0.835-0.835-2.19,0.001-3.027l0,0
	c0.834-0.836,2.189-0.836,3.026,0l8.508,8.51C12.997,9.972,12.997,11.327,12.161,12.162L12.161,12.162z"/>
<polygon fill="#3B97D3" points="14.125,60.704 16.069,51.395 7.036,54.367 "/>
<path fill="#3B97D3" d="M6.702,53.337l9.03-2.962c0.364-0.112,0.755-0.03,1.047,0.221c0.285,0.246,0.417,0.64,0.338,1.02
	l-1.943,9.294c-0.085,0.357-0.349,0.686-0.718,0.798c-0.361,0.119-0.758,0.043-1.05-0.219L6.33,55.155
	c-0.285-0.245-0.417-0.646-0.338-1.014c0.007-0.026,0.01-0.057,0.023-0.072C6.104,53.722,6.375,53.454,6.702,53.337z M14.64,52.997
	l-5.505,1.804l4.319,3.854L14.64,52.997z"/>
<path fill="#3B97D3" d="M12.162,55.771c-0.835-0.837-2.19-0.837-3.026,0l-8.509,8.507c-0.835,0.835-0.835,2.19,0.001,3.026l0,0
	c0.834,0.837,2.189,0.837,3.026,0l8.508-8.509C12.997,57.961,12.997,56.605,12.162,55.771L12.162,55.771z"/>
<polygon fill="#2C3E50" points="65.009,60.703 63.066,51.394 72.099,54.366 "/>
<path fill="#2C3E50" d="M73.12,54.068c0.013,0.016,0.016,0.046,0.023,0.072c0.08,0.368-0.053,0.769-0.338,1.014l-7.076,6.333
	c-0.292,0.262-0.689,0.338-1.05,0.219c-0.369-0.112-0.633-0.44-0.718-0.798l-1.943-9.294c-0.08-0.38,0.053-0.773,0.338-1.02
	c0.292-0.251,0.684-0.333,1.047-0.221l9.03,2.962C72.759,53.453,73.031,53.721,73.12,54.068z M65.681,58.653L70,54.8l-5.505-1.804
	L65.681,58.653z"/>
<path fill="#2C3E50" d="M66.973,55.77c0.835-0.837,2.19-0.837,3.026,0l8.509,8.507c0.835,0.835,0.835,2.19-0.001,3.026l0,0
	c-0.835,0.837-2.189,0.837-3.026,0l-8.508-8.509C66.138,57.96,66.138,56.604,66.973,55.77L66.973,55.77z"/>
</svg>
