<?xml version="1.0" encoding="utf-8"?>
<!-- Generator: Adobe Illustrator 15.0.2, SVG Export Plug-In  -->
<!DOCTYPE svg PUBLIC "-//W3C//DTD SVG 1.1//EN" "http://www.w3.org/Graphics/SVG/1.1/DTD/svg11.dtd" [
	<!ENTITY ns_flows "http://ns.adobe.com/Flows/1.0/">
]>
<svg version="1.1"
	 xmlns="http://www.w3.org/2000/svg" xmlns:xlink="http://www.w3.org/1999/xlink" xmlns:a="http://ns.adobe.com/AdobeSVGViewerExtensions/3.0/"
	 x="0px" y="0px" width="102px" height="85px" viewBox="15.407 103.344 102 85"
	 overflow="visible" enable-background="new 15.407 103.344 102 85" xml:space="preserve">
<defs>
</defs>
<g>
	<rect y="0.976" fill="none" width="156.5" height="104.5"/>
	<text transform="matrix(1 0 0 1 15.0757 7.6504)"><tspan x="0" y="0" fill="#2C3E50" font-family="'Montserrat-Regular'" font-size="9">Establish infrastructure for a </tspan><tspan x="0.891" y="10.8" fill="#2C3E50" font-family="'Montserrat-Regular'" font-size="9">higher-level of collaborative </tspan><tspan x="-14.827" y="21.601" fill="#2C3E50" font-family="'Montserrat-Regular'" font-size="9">analysis, building on the successful </tspan><tspan x="-12.389" y="32.4" fill="#2C3E50" font-family="'Montserrat-Regular'" font-size="9">patterns used for the Higgs boson </tspan><tspan x="-9.414" y="43.2" fill="#2C3E50" font-family="'Montserrat-Regular'" font-size="9">discovery and enabling a deeper </tspan><tspan x="-2.484" y="54" fill="#2C3E50" font-family="'Montserrat-Regular'" font-size="9">communication between the </tspan><tspan x="-6.975" y="64.8" fill="#2C3E50" font-family="'Montserrat-Regular'" font-size="9">theoretical community and the </tspan><tspan x="5.841" y="75.601" fill="#2C3E50" font-family="'Montserrat-Regular'" font-size="9">experimental community</tspan></text>
</g>
<path fill="#2C3E50" d="M81.997,129.811c0,1.725-1.398,3.123-3.123,3.123s-3.123-1.398-3.123-3.123H48.993v36.439H75.75
	c0-1.725,1.398-3.123,3.123-3.123s3.123,1.398,3.123,3.123h3.229v-36.439H81.997z"/>
<path fill="#35495E" d="M75.438,137.201H58.78c-1.381,0-2.5,1.119-2.5,2.5v2.223l8.434,6.107l-8.434,6.105v2.223
	c0,1.381,1.119,2.5,2.5,2.5h16.658c1.381,0,2.498-1.119,2.498-2.5v-16.658C77.936,138.32,76.819,137.201,75.438,137.201z"/>
<path fill="#3B97D3" d="M75.229,153.652c0,1.381-1.119,2.498-2.498,2.498H61.487c-1.381,0-2.498-1.117-2.498-2.498v-11.244
	c0-1.381,1.117-2.498,2.498-2.498h11.244c1.379,0,2.498,1.117,2.498,2.498V153.652z"/>
<circle fill="#3B97D3" cx="82.104" cy="134.531" r="0.625"/>
<circle fill="#3B97D3" cx="81.581" cy="147.854" r="0.625"/>
<circle fill="#3B97D3" cx="82.986" cy="149.104" r="0.624"/>
<circle fill="#3B97D3" cx="50.532" cy="162.016" r="0.391"/>
<circle fill="#3B97D3" cx="50.532" cy="163.707" r="0.391"/>
<polygon fill="#3B97D3" points="55.629,129.811 48.993,129.811 48.993,136.449 "/>
<path fill="#3B97D3" d="M50.922,148.479c0,0.215-0.174,0.393-0.391,0.393c-0.215,0-0.391-0.178-0.391-0.393
	c0-0.213,0.176-0.389,0.391-0.389C50.749,148.09,50.922,148.266,50.922,148.479z"/>
<circle fill="#3B97D3" cx="50.532" cy="150.172" r="0.391"/>
<circle fill="#3B97D3" cx="50.532" cy="151.863" r="0.391"/>
<path fill="#3B97D3" d="M50.922,153.555c0,0.215-0.174,0.391-0.391,0.391c-0.215,0-0.391-0.176-0.391-0.391
	c0-0.213,0.176-0.389,0.391-0.389C50.749,153.166,50.922,153.342,50.922,153.555z"/>
<circle fill="#3B97D3" cx="50.532" cy="155.248" r="0.391"/>
<circle fill="#3B97D3" cx="50.532" cy="156.939" r="0.391"/>
<circle fill="#3B97D3" cx="50.532" cy="158.631" r="0.391"/>
<circle fill="#3B97D3" cx="50.532" cy="160.324" r="0.391"/>
<path fill="#3B97D3" d="M70.206,132.471c-0.215,0-0.393-0.174-0.393-0.391c0-0.215,0.178-0.389,0.393-0.389
	c0.213,0,0.389,0.174,0.389,0.389C70.594,132.297,70.418,132.471,70.206,132.471z"/>
<circle fill="#3B97D3" cx="66.821" cy="132.081" r="0.39"/>
<path fill="#35495E" d="M67.665,153.789c-1.926,0-3.436-2.516-3.436-5.727s1.51-5.727,3.436-5.727s3.436,2.516,3.436,5.727
	S69.59,153.789,67.665,153.789z M67.665,142.961c-1.523,0-2.811,2.336-2.811,5.102s1.287,5.102,2.811,5.102s2.812-2.336,2.812-5.102
	S69.188,142.961,67.665,142.961z"/>
<path fill="#35495E" d="M65.45,152.795c-0.752,0-1.387-0.236-1.834-0.684c-0.674-0.672-0.857-1.732-0.521-2.984
	c0.318-1.191,1.08-2.434,2.141-3.494c1.443-1.443,3.18-2.303,4.646-2.303c0.752,0,1.387,0.236,1.832,0.684
	c0.672,0.672,0.857,1.73,0.521,2.984c-0.318,1.191-1.08,2.432-2.141,3.494C68.653,151.934,66.917,152.795,65.45,152.795z
	 M69.881,143.955c-1.285,0-2.896,0.811-4.205,2.119c-0.984,0.984-1.688,2.127-1.979,3.215c-0.275,1.027-0.148,1.873,0.359,2.381
	c0.328,0.326,0.811,0.5,1.393,0.5c1.283,0,2.895-0.812,4.203-2.119c0.984-0.984,1.688-2.127,1.979-3.215
	c0.275-1.027,0.148-1.873-0.359-2.381C70.944,144.127,70.463,143.955,69.881,143.955z"/>
<path fill="#35495E" d="M69.881,152.795c-1.467,0-3.203-0.861-4.646-2.303c-1.061-1.062-1.822-2.303-2.141-3.494
	c-0.336-1.254-0.152-2.312,0.521-2.984c0.447-0.447,1.082-0.684,1.834-0.684c1.467,0,3.203,0.859,4.645,2.303
	c1.061,1.061,1.822,2.303,2.141,3.494c0.336,1.252,0.15,2.312-0.521,2.984C71.268,152.559,70.633,152.795,69.881,152.795z
	 M65.45,143.955c-0.582,0-1.064,0.172-1.393,0.5c-0.508,0.508-0.635,1.354-0.359,2.381c0.291,1.088,0.994,2.23,1.979,3.215
	c1.309,1.309,2.92,2.119,4.205,2.119c0.582,0,1.062-0.174,1.391-0.5c0.508-0.508,0.635-1.354,0.359-2.381
	c-0.291-1.088-0.994-2.23-1.979-3.215C68.344,144.768,66.733,143.955,65.45,143.955z"/>
<polygon fill="#3B97D3" points="55.194,118.211 44.137,133.584 49.106,133.584 45.098,146.973 56.137,129.643 52.477,129.643 "/>
</svg>
