<?xml version="1.0" encoding="utf-8"?>
<!-- Generator: Adobe Illustrator 15.0.2, SVG Export Plug-In  -->
<!DOCTYPE svg PUBLIC "-//W3C//DTD SVG 1.1//EN" "http://www.w3.org/Graphics/SVG/1.1/DTD/svg11.dtd" [
	<!ENTITY ns_flows "http://ns.adobe.com/Flows/1.0/">
]>
<svg version="1.1"
	 xmlns="http://www.w3.org/2000/svg" xmlns:xlink="http://www.w3.org/1999/xlink" xmlns:a="http://ns.adobe.com/AdobeSVGViewerExtensions/3.0/"
	 x="0px" y="0px" width="102px" height="85px" viewBox="-24.946 -25.033 102 85"
	 overflow="visible" enable-background="new -24.946 -25.033 102 85" xml:space="preserve">
<defs>
</defs>
<path fill="#95A5A5" d="M34.879,10.041c0-1.893-1.461-3.439-3.316-3.585V0H11.48v20.082h6.451c-0.002-0.063-0.01-0.126-0.01-0.189
	c0-1.988,1.611-3.6,3.6-3.6s3.6,1.611,3.6,3.6c0,0.063-0.006,0.126-0.01,0.189h6.451v-6.456
	C33.418,13.48,34.879,11.934,34.879,10.041z"/>
<path fill="#3B97D3" d="M41.178,23.397c1.893,0,3.439-1.461,3.584-3.316h6.457V0H31.137v6.45c0.062-0.003,0.125-0.01,0.189-0.01
	c1.988,0,3.6,1.612,3.6,3.601c0,1.987-1.611,3.599-3.6,3.599c-0.064,0-0.127-0.006-0.189-0.009v6.45h6.455
	C37.738,21.937,39.285,23.397,41.178,23.397z"/>
<path fill="#35495E" d="M27.82,29.507c0,1.893,1.461,3.439,3.316,3.585v6.456h20.082V19.467h-6.451
	c0.004,0.063,0.01,0.125,0.01,0.188c0,1.988-1.611,3.6-3.6,3.6s-3.6-1.611-3.6-3.6c0-0.063,0.006-0.125,0.01-0.188h-6.451v6.455
	C29.281,26.067,27.82,27.614,27.82,29.507z"/>
<path fill="#2980BA" d="M4.529,27.875c-1.305,1.368-1.316,3.496-0.074,4.882L0,37.429l14.531,13.859l13.859-14.531l-4.668-4.451
	c-0.041,0.047-0.08,0.098-0.123,0.143c-1.373,1.438-3.65,1.492-5.09,0.12c-1.439-1.371-1.492-3.649-0.119-5.089
	c0.043-0.046,0.09-0.087,0.137-0.13l-4.668-4.452l-4.455,4.671C7.961,26.394,5.836,26.505,4.529,27.875z"/>
</svg>
