<?xml version="1.0" encoding="utf-8"?>
<!-- Generator: Adobe Illustrator 15.0.2, SVG Export Plug-In  -->
<!DOCTYPE svg PUBLIC "-//W3C//DTD SVG 1.1//EN" "http://www.w3.org/Graphics/SVG/1.1/DTD/svg11.dtd" [
	<!ENTITY ns_flows "http://ns.adobe.com/Flows/1.0/">
]>
<svg version="1.1"
	 xmlns="http://www.w3.org/2000/svg" xmlns:xlink="http://www.w3.org/1999/xlink" xmlns:a="http://ns.adobe.com/AdobeSVGViewerExtensions/3.0/"
	 x="0px" y="0px" width="102px" height="85px" viewBox="-26.646 -29.606 102 85"
	 overflow="visible" enable-background="new -26.646 -29.606 102 85" xml:space="preserve">
<defs>
</defs>
<path fill="#2C3E50" d="M23.869,18.808c-0.174,0-0.35-0.032-0.514-0.097L0.904,9.975C0.346,9.758-0.016,9.213,0,8.613
	c0.016-0.599,0.406-1.124,0.977-1.312l22.01-7.23c0.293-0.097,0.609-0.095,0.902,0.006L46.34,7.749
	c0.566,0.193,0.949,0.723,0.959,1.321c0.01,0.6-0.357,1.14-0.918,1.352l-22.01,8.294C24.209,18.777,24.039,18.808,23.869,18.808z
	 M5.625,8.765l18.252,7.102L41.68,9.157L23.42,2.919L5.625,8.765z"/>
<path fill="#2C3E50" d="M23.65,29.026c-0.139,0-0.277-0.021-0.41-0.061c-0.102-0.03-2.508-0.765-5.076-2.166
	c-3.66-1.999-5.781-4.31-6.307-6.869c-0.17-0.828,0.004-2.177,0.309-4.301c0.076-0.543,0.15-1.061,0.201-1.492
	c0.092-0.779,0.803-1.337,1.576-1.246c0.779,0.092,1.336,0.797,1.246,1.576c-0.053,0.453-0.131,0.996-0.213,1.565
	c-0.145,1.003-0.412,2.872-0.336,3.333c0.682,3.33,6.387,5.876,9.01,6.75c2.619-0.873,8.326-3.42,9.01-6.757
	c0.076-0.454-0.191-2.323-0.336-3.327c-0.092-0.645-0.18-1.255-0.232-1.741c-0.084-0.78,0.48-1.48,1.26-1.565
	c0.781-0.081,1.48,0.479,1.564,1.259c0.051,0.46,0.133,1.037,0.221,1.645c0.303,2.124,0.477,3.473,0.307,4.301
	c-0.525,2.56-2.646,4.871-6.307,6.869c-2.568,1.402-4.975,2.137-5.076,2.167C23.926,29.006,23.787,29.026,23.65,29.026z"/>
<ellipse fill="#2C3E50" cx="23.65" cy="8.088" rx="2.523" ry="0.84"/>
<path fill="#2C3E50" d="M23.65,10.37c-2.447,0-3.967-0.875-3.967-2.282s1.52-2.281,3.967-2.281c2.445,0,3.965,0.874,3.965,2.281
	S26.096,10.37,23.65,10.37z"/>
<polygon fill="#2C3E50" points="24.611,7.576 18.469,3.32 3.746,8.748 24.611,8.748 "/>
<path fill="#2C3E50" d="M24.611,10.189H3.746c-0.699,0-1.297-0.501-1.42-1.188s0.266-1.364,0.92-1.605l14.723-5.428
	c0.441-0.162,0.934-0.1,1.32,0.168l6.143,4.255c0.389,0.27,0.621,0.712,0.621,1.186v1.172C26.053,9.544,25.406,10.189,24.611,10.189
	z M11.822,7.307h9.869l-3.428-2.375L11.822,7.307z"/>
<polygon fill="#2C3E50" points="2.51,8.864 2.51,21.907 7.314,19.349 7.314,11.421 "/>
<path fill="#2C3E50" d="M2.748,22.628c-0.127,0-0.256-0.035-0.369-0.104c-0.219-0.131-0.352-0.365-0.352-0.617V8.864
	c0-0.253,0.133-0.487,0.352-0.618c0.217-0.13,0.486-0.136,0.709-0.019l4.805,2.558c0.234,0.126,0.383,0.37,0.383,0.636v7.928
	c0,0.268-0.148,0.512-0.383,0.637l-4.805,2.557C2.982,22.599,2.865,22.628,2.748,22.628z M3.471,10.063v10.643l3.361-1.79v-7.062
	L3.471,10.063z"/>
</svg>
